; NON-PLATED HOLES START AT T1
; THROUGH (PLATED) HOLES START AT T100
M48
INCH
T1C0.130000
T100C0.015748
T101C0.038000
T102C0.040000
T103C0.035000
%
T1
X026087Y004218
T100
X006687Y016718
T101
X028937Y012718
X028937Y011718
X028937Y013718
X028937Y010718
X019687Y007218
T102
X015187Y004968
X020187Y003218
X001687Y007968
X001687Y010968
X009187Y012968
X009187Y005968
X001687Y014968
X001687Y012968
X015187Y005968
X009187Y008968
X015187Y006968
X015187Y014968
X007687Y011968
X001687Y004968
X007687Y015968
X001687Y015968
X007687Y006968
X007687Y004968
X007687Y010968
X007687Y005968
X015187Y010968
X001687Y009968
X009187Y007968
X015187Y012968
X007687Y009968
X020187Y004218
X015187Y011968
X007687Y008968
X007687Y007968
X015187Y007968
X009187Y010968
X001687Y013968
X001687Y011968
X015187Y009968
X009187Y009968
X015187Y015968
X009187Y006968
X001687Y005968
X009187Y004968
X007687Y012968
X009187Y015968
X007687Y014968
X001687Y008968
X020187Y005218
X007687Y013968
X009187Y014968
X015187Y008968
X001687Y006968
X015187Y013968
X009187Y013968
X009187Y011968
T103
X011437Y003468
X011437Y001468
X007437Y001468
X007437Y003468
T00
M30
