G04 MADE WITH FRITZING*
G04 WWW.FRITZING.ORG*
G04 DOUBLE SIDED*
G04 HOLES PLATED*
G04 CONTOUR ON CENTER OF CONTOUR VECTOR*
%ASAXBY*%
%FSLAX23Y23*%
%MOIN*%
%OFA0B0*%
%SFA1.0B1.0*%
%ADD10C,0.084000*%
%ADD11C,0.088000*%
%ADD12C,0.070000*%
%ADD13C,0.140000*%
%ADD14C,0.085000*%
%ADD15C,0.049370*%
%ADD16R,0.088000X0.088000*%
%ADD17R,0.085000X0.085000*%
%ADD18R,0.128110X0.128110*%
%ADD19R,0.093333X0.093465*%
%ADD20R,0.093465X0.093465*%
%ADD21R,0.001000X0.001000*%
%LNMASK1*%
G90*
G70*
G54D10*
X769Y1597D03*
X769Y1497D03*
X769Y1397D03*
X769Y1297D03*
X769Y1197D03*
X769Y1097D03*
X769Y997D03*
X769Y897D03*
X769Y797D03*
X769Y697D03*
X769Y597D03*
X769Y497D03*
X169Y497D03*
X169Y597D03*
X169Y697D03*
X169Y797D03*
X169Y897D03*
X169Y997D03*
X169Y1097D03*
X169Y1197D03*
X169Y1297D03*
X169Y1397D03*
X169Y1497D03*
X169Y1597D03*
X1519Y1597D03*
X1519Y1497D03*
X1519Y1397D03*
X1519Y1297D03*
X1519Y1197D03*
X1519Y1097D03*
X1519Y997D03*
X1519Y897D03*
X1519Y797D03*
X1519Y697D03*
X1519Y597D03*
X1519Y497D03*
X919Y497D03*
X919Y597D03*
X919Y697D03*
X919Y797D03*
X919Y897D03*
X919Y997D03*
X919Y1097D03*
X919Y1197D03*
X919Y1297D03*
X919Y1397D03*
X919Y1497D03*
X919Y1597D03*
G54D11*
X2894Y1372D03*
X2894Y1272D03*
X2894Y1172D03*
X2894Y1072D03*
G54D12*
X2019Y522D03*
X2019Y422D03*
X2019Y322D03*
G54D13*
X2609Y422D03*
G54D12*
X2019Y522D03*
X2019Y422D03*
X2019Y322D03*
G54D13*
X2609Y422D03*
G54D14*
X744Y347D03*
X744Y147D03*
X1144Y347D03*
X1144Y147D03*
G54D11*
X1969Y722D03*
G54D15*
X669Y1672D03*
G54D16*
X2894Y1372D03*
G54D17*
X744Y347D03*
X1144Y347D03*
G54D18*
X2194Y722D03*
G54D19*
X669Y797D03*
X269Y1397D03*
X394Y897D03*
X294Y897D03*
X294Y1147D03*
X294Y1022D03*
X419Y1397D03*
X519Y1297D03*
X669Y1297D03*
G54D20*
X419Y1297D03*
G54D19*
X269Y1297D03*
X669Y1097D03*
X669Y997D03*
X369Y497D03*
X669Y497D03*
X269Y597D03*
X519Y1597D03*
X419Y1597D03*
X569Y697D03*
X269Y797D03*
G54D21*
X1984Y557D02*
X2052Y557D01*
X1979Y556D02*
X2056Y556D01*
X1976Y555D02*
X2059Y555D01*
X1974Y554D02*
X2062Y554D01*
X1972Y553D02*
X2064Y553D01*
X1970Y552D02*
X2066Y552D01*
X1968Y551D02*
X2067Y551D01*
X1967Y550D02*
X2069Y550D01*
X1966Y549D02*
X2070Y549D01*
X1965Y548D02*
X2071Y548D01*
X1964Y547D02*
X2072Y547D01*
X1963Y546D02*
X2073Y546D01*
X1962Y545D02*
X2074Y545D01*
X1961Y544D02*
X2075Y544D01*
X1960Y543D02*
X2075Y543D01*
X1959Y542D02*
X2076Y542D01*
X1959Y541D02*
X2077Y541D01*
X1958Y540D02*
X2077Y540D01*
X1958Y539D02*
X2078Y539D01*
X1957Y538D02*
X2078Y538D01*
X1957Y537D02*
X2014Y537D01*
X2022Y537D02*
X2079Y537D01*
X1956Y536D02*
X2011Y536D01*
X2025Y536D02*
X2079Y536D01*
X1956Y535D02*
X2009Y535D01*
X2026Y535D02*
X2080Y535D01*
X1955Y534D02*
X2008Y534D01*
X2028Y534D02*
X2080Y534D01*
X1955Y533D02*
X2007Y533D01*
X2029Y533D02*
X2081Y533D01*
X1955Y532D02*
X2006Y532D01*
X2030Y532D02*
X2081Y532D01*
X1955Y531D02*
X2005Y531D01*
X2031Y531D02*
X2081Y531D01*
X1954Y530D02*
X2004Y530D01*
X2031Y530D02*
X2081Y530D01*
X1954Y529D02*
X2004Y529D01*
X2032Y529D02*
X2082Y529D01*
X1954Y528D02*
X2003Y528D01*
X2032Y528D02*
X2082Y528D01*
X1954Y527D02*
X2003Y527D01*
X2033Y527D02*
X2082Y527D01*
X1954Y526D02*
X2003Y526D01*
X2033Y526D02*
X2082Y526D01*
X1953Y525D02*
X2003Y525D01*
X2033Y525D02*
X2082Y525D01*
X1953Y524D02*
X2002Y524D01*
X2033Y524D02*
X2082Y524D01*
X1953Y523D02*
X2002Y523D01*
X2033Y523D02*
X2082Y523D01*
X1953Y522D02*
X2002Y522D01*
X2033Y522D02*
X2082Y522D01*
X1953Y521D02*
X2002Y521D01*
X2033Y521D02*
X2082Y521D01*
X1953Y520D02*
X2003Y520D01*
X2033Y520D02*
X2082Y520D01*
X1954Y519D02*
X2003Y519D01*
X2033Y519D02*
X2082Y519D01*
X1954Y518D02*
X2003Y518D01*
X2033Y518D02*
X2082Y518D01*
X1954Y517D02*
X2003Y517D01*
X2032Y517D02*
X2082Y517D01*
X1954Y516D02*
X2004Y516D01*
X2032Y516D02*
X2082Y516D01*
X1954Y515D02*
X2004Y515D01*
X2031Y515D02*
X2081Y515D01*
X1954Y514D02*
X2005Y514D01*
X2031Y514D02*
X2081Y514D01*
X1955Y513D02*
X2006Y513D01*
X2030Y513D02*
X2081Y513D01*
X1955Y512D02*
X2006Y512D01*
X2029Y512D02*
X2081Y512D01*
X1955Y511D02*
X2008Y511D01*
X2028Y511D02*
X2080Y511D01*
X1956Y510D02*
X2009Y510D01*
X2027Y510D02*
X2080Y510D01*
X1956Y509D02*
X2010Y509D01*
X2025Y509D02*
X2080Y509D01*
X1957Y508D02*
X2013Y508D01*
X2023Y508D02*
X2079Y508D01*
X1957Y507D02*
X2079Y507D01*
X1957Y506D02*
X2078Y506D01*
X1958Y505D02*
X2078Y505D01*
X1959Y504D02*
X2077Y504D01*
X1959Y503D02*
X2076Y503D01*
X1960Y502D02*
X2076Y502D01*
X1961Y501D02*
X2075Y501D01*
X1961Y500D02*
X2074Y500D01*
X1962Y499D02*
X2073Y499D01*
X1963Y498D02*
X2072Y498D01*
X1964Y497D02*
X2071Y497D01*
X1965Y496D02*
X2070Y496D01*
X1967Y495D02*
X2069Y495D01*
X1968Y494D02*
X2068Y494D01*
X1969Y493D02*
X2066Y493D01*
X1971Y492D02*
X2065Y492D01*
X1973Y491D02*
X2063Y491D01*
X1975Y490D02*
X2061Y490D01*
X1978Y489D02*
X2058Y489D01*
X1982Y488D02*
X2054Y488D01*
X1984Y457D02*
X2052Y457D01*
X1979Y456D02*
X2056Y456D01*
X1976Y455D02*
X2059Y455D01*
X1974Y454D02*
X2062Y454D01*
X1972Y453D02*
X2064Y453D01*
X1970Y452D02*
X2066Y452D01*
X1968Y451D02*
X2067Y451D01*
X1967Y450D02*
X2069Y450D01*
X1966Y449D02*
X2070Y449D01*
X1965Y448D02*
X2071Y448D01*
X1964Y447D02*
X2072Y447D01*
X1963Y446D02*
X2073Y446D01*
X1962Y445D02*
X2074Y445D01*
X1961Y444D02*
X2075Y444D01*
X1960Y443D02*
X2075Y443D01*
X1959Y442D02*
X2076Y442D01*
X1959Y441D02*
X2077Y441D01*
X1958Y440D02*
X2077Y440D01*
X1958Y439D02*
X2078Y439D01*
X1957Y438D02*
X2078Y438D01*
X1957Y437D02*
X2014Y437D01*
X2022Y437D02*
X2079Y437D01*
X1956Y436D02*
X2011Y436D01*
X2025Y436D02*
X2079Y436D01*
X1956Y435D02*
X2009Y435D01*
X2026Y435D02*
X2080Y435D01*
X1955Y434D02*
X2008Y434D01*
X2028Y434D02*
X2080Y434D01*
X1955Y433D02*
X2007Y433D01*
X2029Y433D02*
X2081Y433D01*
X1955Y432D02*
X2006Y432D01*
X2030Y432D02*
X2081Y432D01*
X1955Y431D02*
X2005Y431D01*
X2031Y431D02*
X2081Y431D01*
X1954Y430D02*
X2004Y430D01*
X2031Y430D02*
X2081Y430D01*
X1954Y429D02*
X2004Y429D01*
X2032Y429D02*
X2082Y429D01*
X1954Y428D02*
X2003Y428D01*
X2032Y428D02*
X2082Y428D01*
X1954Y427D02*
X2003Y427D01*
X2033Y427D02*
X2082Y427D01*
X1954Y426D02*
X2003Y426D01*
X2033Y426D02*
X2082Y426D01*
X1953Y425D02*
X2003Y425D01*
X2033Y425D02*
X2082Y425D01*
X1953Y424D02*
X2002Y424D01*
X2033Y424D02*
X2082Y424D01*
X1953Y423D02*
X2002Y423D01*
X2033Y423D02*
X2082Y423D01*
X1953Y422D02*
X2002Y422D01*
X2033Y422D02*
X2082Y422D01*
X1953Y421D02*
X2002Y421D01*
X2033Y421D02*
X2082Y421D01*
X1953Y420D02*
X2003Y420D01*
X2033Y420D02*
X2082Y420D01*
X1954Y419D02*
X2003Y419D01*
X2033Y419D02*
X2082Y419D01*
X1954Y418D02*
X2003Y418D01*
X2033Y418D02*
X2082Y418D01*
X1954Y417D02*
X2003Y417D01*
X2032Y417D02*
X2082Y417D01*
X1954Y416D02*
X2004Y416D01*
X2032Y416D02*
X2082Y416D01*
X1954Y415D02*
X2004Y415D01*
X2031Y415D02*
X2081Y415D01*
X1954Y414D02*
X2005Y414D01*
X2031Y414D02*
X2081Y414D01*
X1955Y413D02*
X2006Y413D01*
X2030Y413D02*
X2081Y413D01*
X1955Y412D02*
X2006Y412D01*
X2029Y412D02*
X2081Y412D01*
X1955Y411D02*
X2008Y411D01*
X2028Y411D02*
X2080Y411D01*
X1956Y410D02*
X2009Y410D01*
X2027Y410D02*
X2080Y410D01*
X1956Y409D02*
X2010Y409D01*
X2025Y409D02*
X2080Y409D01*
X1957Y408D02*
X2013Y408D01*
X2023Y408D02*
X2079Y408D01*
X1957Y407D02*
X2079Y407D01*
X1957Y406D02*
X2078Y406D01*
X1958Y405D02*
X2078Y405D01*
X1959Y404D02*
X2077Y404D01*
X1959Y403D02*
X2076Y403D01*
X1960Y402D02*
X2076Y402D01*
X1961Y401D02*
X2075Y401D01*
X1961Y400D02*
X2074Y400D01*
X1962Y399D02*
X2073Y399D01*
X1963Y398D02*
X2072Y398D01*
X1964Y397D02*
X2071Y397D01*
X1965Y396D02*
X2070Y396D01*
X1967Y395D02*
X2069Y395D01*
X1968Y394D02*
X2068Y394D01*
X1969Y393D02*
X2066Y393D01*
X1971Y392D02*
X2065Y392D01*
X1973Y391D02*
X2063Y391D01*
X1975Y390D02*
X2060Y390D01*
X1978Y389D02*
X2058Y389D01*
X1982Y388D02*
X2054Y388D01*
X1984Y357D02*
X2052Y357D01*
X1979Y356D02*
X2056Y356D01*
X1976Y355D02*
X2060Y355D01*
X1974Y354D02*
X2062Y354D01*
X1972Y353D02*
X2064Y353D01*
X1970Y352D02*
X2066Y352D01*
X1968Y351D02*
X2067Y351D01*
X1967Y350D02*
X2069Y350D01*
X1966Y349D02*
X2070Y349D01*
X1965Y348D02*
X2071Y348D01*
X1964Y347D02*
X2072Y347D01*
X1963Y346D02*
X2073Y346D01*
X1962Y345D02*
X2074Y345D01*
X1961Y344D02*
X2075Y344D01*
X1960Y343D02*
X2075Y343D01*
X1959Y342D02*
X2076Y342D01*
X1959Y341D02*
X2077Y341D01*
X1958Y340D02*
X2077Y340D01*
X1958Y339D02*
X2078Y339D01*
X1957Y338D02*
X2078Y338D01*
X1957Y337D02*
X2014Y337D01*
X2022Y337D02*
X2079Y337D01*
X1956Y336D02*
X2011Y336D01*
X2025Y336D02*
X2079Y336D01*
X1956Y335D02*
X2009Y335D01*
X2026Y335D02*
X2080Y335D01*
X1955Y334D02*
X2008Y334D01*
X2028Y334D02*
X2080Y334D01*
X1955Y333D02*
X2007Y333D01*
X2029Y333D02*
X2081Y333D01*
X1955Y332D02*
X2006Y332D01*
X2030Y332D02*
X2081Y332D01*
X1955Y331D02*
X2005Y331D01*
X2031Y331D02*
X2081Y331D01*
X1954Y330D02*
X2004Y330D01*
X2031Y330D02*
X2081Y330D01*
X1954Y329D02*
X2004Y329D01*
X2032Y329D02*
X2082Y329D01*
X1954Y328D02*
X2003Y328D01*
X2032Y328D02*
X2082Y328D01*
X1954Y327D02*
X2003Y327D01*
X2033Y327D02*
X2082Y327D01*
X1954Y326D02*
X2003Y326D01*
X2033Y326D02*
X2082Y326D01*
X1953Y325D02*
X2003Y325D01*
X2033Y325D02*
X2082Y325D01*
X1953Y324D02*
X2002Y324D01*
X2033Y324D02*
X2082Y324D01*
X1953Y323D02*
X2002Y323D01*
X2033Y323D02*
X2082Y323D01*
X1953Y322D02*
X2002Y322D01*
X2033Y322D02*
X2082Y322D01*
X1953Y321D02*
X2002Y321D01*
X2033Y321D02*
X2082Y321D01*
X1953Y320D02*
X2003Y320D01*
X2033Y320D02*
X2082Y320D01*
X1954Y319D02*
X2003Y319D01*
X2033Y319D02*
X2082Y319D01*
X1954Y318D02*
X2003Y318D01*
X2033Y318D02*
X2082Y318D01*
X1954Y317D02*
X2003Y317D01*
X2032Y317D02*
X2082Y317D01*
X1954Y316D02*
X2004Y316D01*
X2032Y316D02*
X2082Y316D01*
X1954Y315D02*
X2004Y315D01*
X2031Y315D02*
X2081Y315D01*
X1954Y314D02*
X2005Y314D01*
X2031Y314D02*
X2081Y314D01*
X1955Y313D02*
X2006Y313D01*
X2030Y313D02*
X2081Y313D01*
X1955Y312D02*
X2006Y312D01*
X2029Y312D02*
X2081Y312D01*
X1955Y311D02*
X2008Y311D01*
X2028Y311D02*
X2080Y311D01*
X1956Y310D02*
X2009Y310D01*
X2027Y310D02*
X2080Y310D01*
X1956Y309D02*
X2010Y309D01*
X2025Y309D02*
X2080Y309D01*
X1957Y308D02*
X2013Y308D01*
X2023Y308D02*
X2079Y308D01*
X1957Y307D02*
X2079Y307D01*
X1957Y306D02*
X2078Y306D01*
X1958Y305D02*
X2078Y305D01*
X1959Y304D02*
X2077Y304D01*
X1959Y303D02*
X2076Y303D01*
X1960Y302D02*
X2076Y302D01*
X1961Y301D02*
X2075Y301D01*
X1961Y300D02*
X2074Y300D01*
X1962Y299D02*
X2073Y299D01*
X1963Y298D02*
X2072Y298D01*
X1964Y297D02*
X2071Y297D01*
X1965Y296D02*
X2070Y296D01*
X1967Y295D02*
X2069Y295D01*
X1968Y294D02*
X2068Y294D01*
X1969Y293D02*
X2066Y293D01*
X1971Y292D02*
X2065Y292D01*
X1973Y291D02*
X2063Y291D01*
X1975Y290D02*
X2060Y290D01*
X1978Y289D02*
X2058Y289D01*
X1982Y288D02*
X2054Y288D01*
D02*
G04 End of Mask1*
M02*