G04 MADE WITH FRITZING*
G04 WWW.FRITZING.ORG*
G04 DOUBLE SIDED*
G04 HOLES PLATED*
G04 CONTOUR ON CENTER OF CONTOUR VECTOR*
%ASAXBY*%
%FSLAX23Y23*%
%MOIN*%
%OFA0B0*%
%SFA1.0B1.0*%
%ADD10C,0.084000*%
%ADD11C,0.088000*%
%ADD12C,0.085000*%
%ADD13C,0.070000*%
%ADD14C,0.140000*%
%ADD15C,0.075000*%
%ADD16C,0.090000*%
%ADD17C,0.079444*%
%ADD18C,0.072992*%
%ADD19C,0.092000*%
%ADD20C,0.049370*%
%ADD21C,0.135984*%
%ADD22R,0.088000X0.088000*%
%ADD23R,0.085000X0.085000*%
%ADD24R,0.090000X0.090000*%
%ADD25R,0.072992X0.072992*%
%ADD26R,0.092000X0.092000*%
%ADD27R,0.001000X0.001000*%
%LNMASK0*%
G90*
G70*
G54D10*
X1057Y3009D03*
X1057Y2909D03*
X1057Y2809D03*
X1057Y2709D03*
X1057Y2609D03*
X1057Y2509D03*
X1057Y2409D03*
X1057Y2309D03*
X1057Y2209D03*
X1057Y2109D03*
X1057Y2009D03*
X1057Y1909D03*
X457Y1909D03*
X457Y2009D03*
X457Y2109D03*
X457Y2209D03*
X457Y2309D03*
X457Y2409D03*
X457Y2509D03*
X457Y2609D03*
X457Y2709D03*
X457Y2809D03*
X457Y2909D03*
X457Y3009D03*
X1907Y3009D03*
X1907Y2909D03*
X1907Y2809D03*
X1907Y2709D03*
X1907Y2609D03*
X1907Y2509D03*
X1907Y2409D03*
X1907Y2309D03*
X1907Y2209D03*
X1907Y2109D03*
X1907Y2009D03*
X1907Y1909D03*
X1307Y1909D03*
X1307Y2009D03*
X1307Y2109D03*
X1307Y2209D03*
X1307Y2309D03*
X1307Y2409D03*
X1307Y2509D03*
X1307Y2609D03*
X1307Y2709D03*
X1307Y2809D03*
X1307Y2909D03*
X1307Y3009D03*
G54D11*
X2407Y2809D03*
X2407Y2709D03*
X2407Y2609D03*
X2407Y2509D03*
G54D12*
X2282Y859D03*
X2282Y659D03*
X1207Y859D03*
X1207Y659D03*
G54D13*
X1657Y584D03*
X1757Y584D03*
X1857Y584D03*
G54D14*
X1757Y1174D03*
G54D12*
X1482Y1609D03*
X1482Y1709D03*
X2332Y1459D03*
X2332Y1059D03*
X2532Y1459D03*
X2532Y1059D03*
X2207Y1059D03*
X2207Y1459D03*
X682Y1334D03*
X682Y934D03*
X457Y1559D03*
X457Y1659D03*
X1857Y1684D03*
X1857Y1584D03*
X2157Y1759D03*
X2257Y1759D03*
X1132Y1584D03*
X1132Y1684D03*
X2207Y2359D03*
X2107Y2359D03*
X807Y1334D03*
X807Y934D03*
G54D15*
X982Y1084D03*
X982Y1184D03*
X682Y784D03*
X682Y684D03*
G54D12*
X457Y1209D03*
X457Y1309D03*
X457Y1409D03*
X2707Y1034D03*
X2807Y1034D03*
X2907Y1034D03*
G54D10*
X882Y1734D03*
X782Y1534D03*
X682Y1734D03*
G54D16*
X2082Y284D03*
X1944Y284D03*
X1757Y284D03*
X1619Y284D03*
X1420Y284D03*
X1282Y284D03*
X1145Y284D03*
X1007Y284D03*
G54D17*
X1657Y1734D03*
X1657Y1633D03*
X1657Y1534D03*
G54D16*
X2407Y284D03*
X2269Y284D03*
G54D18*
X2108Y2209D03*
X2207Y2209D03*
X2158Y1909D03*
X2257Y1909D03*
X1307Y1682D03*
X1307Y1584D03*
G54D19*
X3032Y734D03*
X3032Y1032D03*
G54D20*
X924Y1586D03*
X1932Y1514D03*
X1707Y1884D03*
X1982Y1384D03*
X1982Y1034D03*
X982Y2534D03*
G54D13*
X2857Y459D03*
X2857Y759D03*
X2857Y859D03*
X2657Y859D03*
X2657Y459D03*
X2657Y759D03*
G54D21*
X3057Y3260D03*
X3057Y259D03*
X157Y3259D03*
X157Y259D03*
G54D22*
X2407Y2809D03*
G54D23*
X2282Y859D03*
X1207Y859D03*
G54D24*
X2082Y284D03*
X1757Y284D03*
X1420Y284D03*
X2407Y284D03*
G54D25*
X2108Y2209D03*
X2158Y1909D03*
X1307Y1682D03*
G54D26*
X3032Y733D03*
G54D27*
X1649Y648D02*
X1664Y648D01*
X1749Y648D02*
X1764Y648D01*
X1849Y648D02*
X1864Y648D01*
X1645Y647D02*
X1667Y647D01*
X1745Y647D02*
X1767Y647D01*
X1845Y647D02*
X1867Y647D01*
X1643Y646D02*
X1670Y646D01*
X1743Y646D02*
X1770Y646D01*
X1843Y646D02*
X1870Y646D01*
X1641Y645D02*
X1672Y645D01*
X1741Y645D02*
X1772Y645D01*
X1841Y645D02*
X1872Y645D01*
X1639Y644D02*
X1674Y644D01*
X1739Y644D02*
X1773Y644D01*
X1839Y644D02*
X1873Y644D01*
X1637Y643D02*
X1675Y643D01*
X1737Y643D02*
X1775Y643D01*
X1837Y643D02*
X1875Y643D01*
X1636Y642D02*
X1677Y642D01*
X1736Y642D02*
X1777Y642D01*
X1836Y642D02*
X1877Y642D01*
X1634Y641D02*
X1678Y641D01*
X1734Y641D02*
X1778Y641D01*
X1834Y641D02*
X1878Y641D01*
X1633Y640D02*
X1679Y640D01*
X1733Y640D02*
X1779Y640D01*
X1833Y640D02*
X1879Y640D01*
X1632Y639D02*
X1680Y639D01*
X1732Y639D02*
X1780Y639D01*
X1832Y639D02*
X1880Y639D01*
X1631Y638D02*
X1681Y638D01*
X1731Y638D02*
X1781Y638D01*
X1831Y638D02*
X1881Y638D01*
X1630Y637D02*
X1682Y637D01*
X1730Y637D02*
X1782Y637D01*
X1830Y637D02*
X1882Y637D01*
X1630Y636D02*
X1683Y636D01*
X1730Y636D02*
X1783Y636D01*
X1830Y636D02*
X1883Y636D01*
X1629Y635D02*
X1684Y635D01*
X1729Y635D02*
X1784Y635D01*
X1829Y635D02*
X1884Y635D01*
X1628Y634D02*
X1684Y634D01*
X1728Y634D02*
X1784Y634D01*
X1828Y634D02*
X1884Y634D01*
X1627Y633D02*
X1685Y633D01*
X1727Y633D02*
X1785Y633D01*
X1827Y633D02*
X1885Y633D01*
X1627Y632D02*
X1686Y632D01*
X1727Y632D02*
X1786Y632D01*
X1827Y632D02*
X1886Y632D01*
X1626Y631D02*
X1686Y631D01*
X1726Y631D02*
X1786Y631D01*
X1826Y631D02*
X1886Y631D01*
X1626Y630D02*
X1687Y630D01*
X1726Y630D02*
X1787Y630D01*
X1826Y630D02*
X1887Y630D01*
X1625Y629D02*
X1687Y629D01*
X1725Y629D02*
X1787Y629D01*
X1825Y629D02*
X1887Y629D01*
X1625Y628D02*
X1688Y628D01*
X1725Y628D02*
X1788Y628D01*
X1825Y628D02*
X1888Y628D01*
X1624Y627D02*
X1688Y627D01*
X1724Y627D02*
X1788Y627D01*
X1824Y627D02*
X1888Y627D01*
X1624Y626D02*
X1688Y626D01*
X1724Y626D02*
X1788Y626D01*
X1824Y626D02*
X1888Y626D01*
X1624Y625D02*
X1689Y625D01*
X1724Y625D02*
X1789Y625D01*
X1824Y625D02*
X1889Y625D01*
X1623Y624D02*
X1689Y624D01*
X1723Y624D02*
X1789Y624D01*
X1823Y624D02*
X1889Y624D01*
X1623Y623D02*
X1689Y623D01*
X1723Y623D02*
X1789Y623D01*
X1823Y623D02*
X1889Y623D01*
X1623Y622D02*
X1690Y622D01*
X1723Y622D02*
X1790Y622D01*
X1823Y622D02*
X1890Y622D01*
X1622Y621D02*
X1690Y621D01*
X1722Y621D02*
X1790Y621D01*
X1822Y621D02*
X1890Y621D01*
X1622Y620D02*
X1690Y620D01*
X1722Y620D02*
X1790Y620D01*
X1822Y620D02*
X1890Y620D01*
X1622Y619D02*
X1690Y619D01*
X1722Y619D02*
X1790Y619D01*
X1822Y619D02*
X1890Y619D01*
X1622Y618D02*
X1690Y618D01*
X1722Y618D02*
X1790Y618D01*
X1822Y618D02*
X1890Y618D01*
X1622Y617D02*
X1691Y617D01*
X1722Y617D02*
X1791Y617D01*
X1822Y617D02*
X1890Y617D01*
X1622Y616D02*
X1691Y616D01*
X1722Y616D02*
X1791Y616D01*
X1822Y616D02*
X1891Y616D01*
X1622Y615D02*
X1691Y615D01*
X1722Y615D02*
X1791Y615D01*
X1822Y615D02*
X1891Y615D01*
X1622Y614D02*
X1691Y614D01*
X1722Y614D02*
X1791Y614D01*
X1822Y614D02*
X1891Y614D01*
X1622Y613D02*
X1691Y613D01*
X1722Y613D02*
X1791Y613D01*
X1822Y613D02*
X1891Y613D01*
X1622Y612D02*
X1691Y612D01*
X1722Y612D02*
X1791Y612D01*
X1822Y612D02*
X1891Y612D01*
X1622Y611D02*
X1691Y611D01*
X1722Y611D02*
X1791Y611D01*
X1822Y611D02*
X1891Y611D01*
X1622Y610D02*
X1691Y610D01*
X1722Y610D02*
X1791Y610D01*
X1822Y610D02*
X1891Y610D01*
X1622Y609D02*
X1691Y609D01*
X1722Y609D02*
X1791Y609D01*
X1822Y609D02*
X1891Y609D01*
X1622Y608D02*
X1691Y608D01*
X1722Y608D02*
X1791Y608D01*
X1822Y608D02*
X1891Y608D01*
X1622Y607D02*
X1691Y607D01*
X1722Y607D02*
X1791Y607D01*
X1822Y607D02*
X1891Y607D01*
X1622Y606D02*
X1691Y606D01*
X1722Y606D02*
X1791Y606D01*
X1822Y606D02*
X1891Y606D01*
X1622Y605D02*
X1691Y605D01*
X1722Y605D02*
X1791Y605D01*
X1822Y605D02*
X1891Y605D01*
X1622Y604D02*
X1691Y604D01*
X1722Y604D02*
X1791Y604D01*
X1822Y604D02*
X1891Y604D01*
X1622Y603D02*
X1691Y603D01*
X1722Y603D02*
X1791Y603D01*
X1822Y603D02*
X1891Y603D01*
X1622Y602D02*
X1691Y602D01*
X1722Y602D02*
X1791Y602D01*
X1822Y602D02*
X1891Y602D01*
X1622Y601D02*
X1691Y601D01*
X1722Y601D02*
X1791Y601D01*
X1822Y601D02*
X1891Y601D01*
X1622Y600D02*
X1691Y600D01*
X1722Y600D02*
X1791Y600D01*
X1822Y600D02*
X1891Y600D01*
X1622Y599D02*
X1691Y599D01*
X1722Y599D02*
X1791Y599D01*
X1822Y599D02*
X1891Y599D01*
X1622Y598D02*
X1650Y598D01*
X1662Y598D02*
X1691Y598D01*
X1722Y598D02*
X1750Y598D01*
X1762Y598D02*
X1791Y598D01*
X1822Y598D02*
X1850Y598D01*
X1862Y598D02*
X1891Y598D01*
X1622Y597D02*
X1648Y597D01*
X1664Y597D02*
X1691Y597D01*
X1722Y597D02*
X1748Y597D01*
X1764Y597D02*
X1791Y597D01*
X1822Y597D02*
X1848Y597D01*
X1864Y597D02*
X1891Y597D01*
X1622Y596D02*
X1647Y596D01*
X1666Y596D02*
X1691Y596D01*
X1722Y596D02*
X1747Y596D01*
X1766Y596D02*
X1791Y596D01*
X1822Y596D02*
X1847Y596D01*
X1866Y596D02*
X1891Y596D01*
X1622Y595D02*
X1646Y595D01*
X1667Y595D02*
X1691Y595D01*
X1722Y595D02*
X1746Y595D01*
X1767Y595D02*
X1791Y595D01*
X1822Y595D02*
X1846Y595D01*
X1867Y595D02*
X1891Y595D01*
X1622Y594D02*
X1645Y594D01*
X1668Y594D02*
X1691Y594D01*
X1722Y594D02*
X1745Y594D01*
X1768Y594D02*
X1791Y594D01*
X1822Y594D02*
X1845Y594D01*
X1868Y594D02*
X1891Y594D01*
X1622Y593D02*
X1644Y593D01*
X1669Y593D02*
X1691Y593D01*
X1722Y593D02*
X1744Y593D01*
X1769Y593D02*
X1791Y593D01*
X1822Y593D02*
X1844Y593D01*
X1869Y593D02*
X1891Y593D01*
X1622Y592D02*
X1643Y592D01*
X1669Y592D02*
X1691Y592D01*
X1722Y592D02*
X1743Y592D01*
X1769Y592D02*
X1791Y592D01*
X1822Y592D02*
X1843Y592D01*
X1869Y592D02*
X1891Y592D01*
X1622Y591D02*
X1642Y591D01*
X1670Y591D02*
X1691Y591D01*
X1722Y591D02*
X1742Y591D01*
X1770Y591D02*
X1791Y591D01*
X1822Y591D02*
X1842Y591D01*
X1870Y591D02*
X1891Y591D01*
X1622Y590D02*
X1642Y590D01*
X1671Y590D02*
X1691Y590D01*
X1722Y590D02*
X1742Y590D01*
X1770Y590D02*
X1791Y590D01*
X1822Y590D02*
X1842Y590D01*
X1870Y590D02*
X1891Y590D01*
X1622Y589D02*
X1642Y589D01*
X1671Y589D02*
X1691Y589D01*
X1722Y589D02*
X1742Y589D01*
X1771Y589D02*
X1791Y589D01*
X1822Y589D02*
X1841Y589D01*
X1871Y589D02*
X1891Y589D01*
X1622Y588D02*
X1641Y588D01*
X1671Y588D02*
X1691Y588D01*
X1722Y588D02*
X1741Y588D01*
X1771Y588D02*
X1791Y588D01*
X1822Y588D02*
X1841Y588D01*
X1871Y588D02*
X1891Y588D01*
X1622Y587D02*
X1641Y587D01*
X1671Y587D02*
X1691Y587D01*
X1722Y587D02*
X1741Y587D01*
X1771Y587D02*
X1791Y587D01*
X1822Y587D02*
X1841Y587D01*
X1871Y587D02*
X1891Y587D01*
X1622Y586D02*
X1641Y586D01*
X1672Y586D02*
X1691Y586D01*
X1722Y586D02*
X1741Y586D01*
X1771Y586D02*
X1791Y586D01*
X1822Y586D02*
X1841Y586D01*
X1871Y586D02*
X1891Y586D01*
X1622Y585D02*
X1641Y585D01*
X1672Y585D02*
X1691Y585D01*
X1722Y585D02*
X1741Y585D01*
X1772Y585D02*
X1791Y585D01*
X1822Y585D02*
X1841Y585D01*
X1872Y585D02*
X1891Y585D01*
X1622Y584D02*
X1641Y584D01*
X1672Y584D02*
X1691Y584D01*
X1722Y584D02*
X1741Y584D01*
X1772Y584D02*
X1791Y584D01*
X1822Y584D02*
X1841Y584D01*
X1872Y584D02*
X1891Y584D01*
X1622Y583D02*
X1641Y583D01*
X1672Y583D02*
X1691Y583D01*
X1722Y583D02*
X1741Y583D01*
X1772Y583D02*
X1791Y583D01*
X1822Y583D02*
X1841Y583D01*
X1872Y583D02*
X1891Y583D01*
X1622Y582D02*
X1641Y582D01*
X1672Y582D02*
X1691Y582D01*
X1722Y582D02*
X1741Y582D01*
X1771Y582D02*
X1791Y582D01*
X1822Y582D02*
X1841Y582D01*
X1871Y582D02*
X1891Y582D01*
X1622Y581D02*
X1641Y581D01*
X1671Y581D02*
X1691Y581D01*
X1722Y581D02*
X1741Y581D01*
X1771Y581D02*
X1791Y581D01*
X1822Y581D02*
X1841Y581D01*
X1871Y581D02*
X1891Y581D01*
X1622Y580D02*
X1641Y580D01*
X1671Y580D02*
X1691Y580D01*
X1722Y580D02*
X1741Y580D01*
X1771Y580D02*
X1791Y580D01*
X1822Y580D02*
X1841Y580D01*
X1871Y580D02*
X1891Y580D01*
X1622Y579D02*
X1642Y579D01*
X1671Y579D02*
X1691Y579D01*
X1722Y579D02*
X1742Y579D01*
X1771Y579D02*
X1791Y579D01*
X1822Y579D02*
X1841Y579D01*
X1871Y579D02*
X1891Y579D01*
X1622Y578D02*
X1642Y578D01*
X1671Y578D02*
X1691Y578D01*
X1722Y578D02*
X1742Y578D01*
X1770Y578D02*
X1791Y578D01*
X1822Y578D02*
X1842Y578D01*
X1870Y578D02*
X1891Y578D01*
X1622Y577D02*
X1642Y577D01*
X1670Y577D02*
X1691Y577D01*
X1722Y577D02*
X1742Y577D01*
X1770Y577D02*
X1791Y577D01*
X1822Y577D02*
X1842Y577D01*
X1870Y577D02*
X1891Y577D01*
X1622Y576D02*
X1643Y576D01*
X1669Y576D02*
X1691Y576D01*
X1722Y576D02*
X1743Y576D01*
X1769Y576D02*
X1791Y576D01*
X1822Y576D02*
X1843Y576D01*
X1869Y576D02*
X1891Y576D01*
X1622Y575D02*
X1644Y575D01*
X1669Y575D02*
X1691Y575D01*
X1722Y575D02*
X1744Y575D01*
X1769Y575D02*
X1791Y575D01*
X1822Y575D02*
X1844Y575D01*
X1869Y575D02*
X1891Y575D01*
X1622Y574D02*
X1645Y574D01*
X1668Y574D02*
X1691Y574D01*
X1722Y574D02*
X1745Y574D01*
X1768Y574D02*
X1791Y574D01*
X1822Y574D02*
X1845Y574D01*
X1868Y574D02*
X1891Y574D01*
X1622Y573D02*
X1646Y573D01*
X1667Y573D02*
X1691Y573D01*
X1722Y573D02*
X1746Y573D01*
X1767Y573D02*
X1791Y573D01*
X1822Y573D02*
X1846Y573D01*
X1867Y573D02*
X1891Y573D01*
X1622Y572D02*
X1647Y572D01*
X1666Y572D02*
X1691Y572D01*
X1722Y572D02*
X1747Y572D01*
X1766Y572D02*
X1791Y572D01*
X1822Y572D02*
X1847Y572D01*
X1866Y572D02*
X1891Y572D01*
X1622Y571D02*
X1648Y571D01*
X1664Y571D02*
X1691Y571D01*
X1722Y571D02*
X1748Y571D01*
X1764Y571D02*
X1791Y571D01*
X1822Y571D02*
X1848Y571D01*
X1864Y571D02*
X1891Y571D01*
X1622Y570D02*
X1650Y570D01*
X1662Y570D02*
X1691Y570D01*
X1722Y570D02*
X1750Y570D01*
X1762Y570D02*
X1791Y570D01*
X1822Y570D02*
X1850Y570D01*
X1862Y570D02*
X1891Y570D01*
X1622Y569D02*
X1691Y569D01*
X1722Y569D02*
X1791Y569D01*
X1822Y569D02*
X1891Y569D01*
X1622Y568D02*
X1691Y568D01*
X1722Y568D02*
X1791Y568D01*
X1822Y568D02*
X1891Y568D01*
X1622Y567D02*
X1691Y567D01*
X1722Y567D02*
X1791Y567D01*
X1822Y567D02*
X1891Y567D01*
X1622Y566D02*
X1691Y566D01*
X1722Y566D02*
X1791Y566D01*
X1822Y566D02*
X1891Y566D01*
X1622Y565D02*
X1691Y565D01*
X1722Y565D02*
X1791Y565D01*
X1822Y565D02*
X1891Y565D01*
X1622Y564D02*
X1691Y564D01*
X1722Y564D02*
X1791Y564D01*
X1822Y564D02*
X1891Y564D01*
X1622Y563D02*
X1691Y563D01*
X1722Y563D02*
X1791Y563D01*
X1822Y563D02*
X1891Y563D01*
X1622Y562D02*
X1691Y562D01*
X1722Y562D02*
X1791Y562D01*
X1822Y562D02*
X1891Y562D01*
X1622Y561D02*
X1691Y561D01*
X1722Y561D02*
X1791Y561D01*
X1822Y561D02*
X1891Y561D01*
X1622Y560D02*
X1691Y560D01*
X1722Y560D02*
X1791Y560D01*
X1822Y560D02*
X1891Y560D01*
X1622Y559D02*
X1691Y559D01*
X1722Y559D02*
X1791Y559D01*
X1822Y559D02*
X1891Y559D01*
X1622Y558D02*
X1691Y558D01*
X1722Y558D02*
X1791Y558D01*
X1822Y558D02*
X1891Y558D01*
X1622Y557D02*
X1691Y557D01*
X1722Y557D02*
X1791Y557D01*
X1822Y557D02*
X1891Y557D01*
X1622Y556D02*
X1691Y556D01*
X1722Y556D02*
X1791Y556D01*
X1822Y556D02*
X1891Y556D01*
X1622Y555D02*
X1691Y555D01*
X1722Y555D02*
X1791Y555D01*
X1822Y555D02*
X1891Y555D01*
X1622Y554D02*
X1691Y554D01*
X1722Y554D02*
X1791Y554D01*
X1822Y554D02*
X1891Y554D01*
X1622Y553D02*
X1691Y553D01*
X1722Y553D02*
X1791Y553D01*
X1822Y553D02*
X1891Y553D01*
X1622Y552D02*
X1691Y552D01*
X1722Y552D02*
X1791Y552D01*
X1822Y552D02*
X1891Y552D01*
X1622Y551D02*
X1691Y551D01*
X1722Y551D02*
X1791Y551D01*
X1822Y551D02*
X1890Y551D01*
X1622Y550D02*
X1690Y550D01*
X1722Y550D02*
X1790Y550D01*
X1822Y550D02*
X1890Y550D01*
X1622Y549D02*
X1690Y549D01*
X1722Y549D02*
X1790Y549D01*
X1822Y549D02*
X1890Y549D01*
X1622Y548D02*
X1690Y548D01*
X1722Y548D02*
X1790Y548D01*
X1822Y548D02*
X1890Y548D01*
X1622Y547D02*
X1690Y547D01*
X1722Y547D02*
X1790Y547D01*
X1822Y547D02*
X1890Y547D01*
X1623Y546D02*
X1690Y546D01*
X1723Y546D02*
X1790Y546D01*
X1823Y546D02*
X1890Y546D01*
X1623Y545D02*
X1689Y545D01*
X1723Y545D02*
X1789Y545D01*
X1823Y545D02*
X1889Y545D01*
X1623Y544D02*
X1689Y544D01*
X1723Y544D02*
X1789Y544D01*
X1823Y544D02*
X1889Y544D01*
X1624Y543D02*
X1689Y543D01*
X1724Y543D02*
X1789Y543D01*
X1824Y543D02*
X1889Y543D01*
X1624Y542D02*
X1688Y542D01*
X1724Y542D02*
X1788Y542D01*
X1824Y542D02*
X1888Y542D01*
X1624Y541D02*
X1688Y541D01*
X1724Y541D02*
X1788Y541D01*
X1824Y541D02*
X1888Y541D01*
X1625Y540D02*
X1688Y540D01*
X1725Y540D02*
X1788Y540D01*
X1825Y540D02*
X1888Y540D01*
X1625Y539D02*
X1687Y539D01*
X1725Y539D02*
X1787Y539D01*
X1825Y539D02*
X1887Y539D01*
X1626Y538D02*
X1687Y538D01*
X1726Y538D02*
X1787Y538D01*
X1826Y538D02*
X1887Y538D01*
X1626Y537D02*
X1686Y537D01*
X1726Y537D02*
X1786Y537D01*
X1826Y537D02*
X1886Y537D01*
X1627Y536D02*
X1686Y536D01*
X1727Y536D02*
X1786Y536D01*
X1827Y536D02*
X1886Y536D01*
X1627Y535D02*
X1685Y535D01*
X1727Y535D02*
X1785Y535D01*
X1827Y535D02*
X1885Y535D01*
X1628Y534D02*
X1684Y534D01*
X1728Y534D02*
X1784Y534D01*
X1828Y534D02*
X1884Y534D01*
X1629Y533D02*
X1684Y533D01*
X1729Y533D02*
X1784Y533D01*
X1829Y533D02*
X1884Y533D01*
X1630Y532D02*
X1683Y532D01*
X1730Y532D02*
X1783Y532D01*
X1829Y532D02*
X1883Y532D01*
X1630Y531D02*
X1682Y531D01*
X1730Y531D02*
X1782Y531D01*
X1830Y531D02*
X1882Y531D01*
X1631Y530D02*
X1681Y530D01*
X1731Y530D02*
X1781Y530D01*
X1831Y530D02*
X1881Y530D01*
X1632Y529D02*
X1680Y529D01*
X1732Y529D02*
X1780Y529D01*
X1832Y529D02*
X1880Y529D01*
X1633Y528D02*
X1679Y528D01*
X1733Y528D02*
X1779Y528D01*
X1833Y528D02*
X1879Y528D01*
X1634Y527D02*
X1678Y527D01*
X1734Y527D02*
X1778Y527D01*
X1834Y527D02*
X1878Y527D01*
X1636Y526D02*
X1677Y526D01*
X1736Y526D02*
X1777Y526D01*
X1836Y526D02*
X1877Y526D01*
X1637Y525D02*
X1675Y525D01*
X1737Y525D02*
X1775Y525D01*
X1837Y525D02*
X1875Y525D01*
X1639Y524D02*
X1674Y524D01*
X1739Y524D02*
X1774Y524D01*
X1839Y524D02*
X1873Y524D01*
X1641Y523D02*
X1672Y523D01*
X1741Y523D02*
X1772Y523D01*
X1841Y523D02*
X1872Y523D01*
X1643Y522D02*
X1670Y522D01*
X1743Y522D02*
X1770Y522D01*
X1843Y522D02*
X1870Y522D01*
X1645Y521D02*
X1667Y521D01*
X1745Y521D02*
X1767Y521D01*
X1845Y521D02*
X1867Y521D01*
X1649Y520D02*
X1664Y520D01*
X1749Y520D02*
X1764Y520D01*
X1849Y520D02*
X1864Y520D01*
D02*
G04 End of Mask0*
M02*