; NON-PLATED HOLES START AT T1
; THROUGH (PLATED) HOLES START AT T100
M48
INCH
T1C0.130000
T2C0.125984
T100C0.015748
T101C0.027559
T102C0.042000
T103C0.035000
T104C0.031497
T105C0.038000
T106C0.040000
T107C0.030556
T108C0.039370
%
T1
X017568Y011735
T2
X030568Y032604
X030568Y002585
X001568Y002585
X001568Y032585
T100
X019324Y015137
X017068Y018835
X009818Y025335
X009243Y015857
X019818Y013835
X019818Y010335
T101
X009818Y010835
X006818Y006835
X006818Y007835
X009818Y011835
T102
X030318Y010315
X030318Y007335
T103
X028068Y010335
X012068Y008585
X023318Y014585
X022818Y008585
X022568Y017585
X008068Y013335
X014818Y017085
X004568Y014085
X004568Y013085
X004568Y015585
X006818Y013335
X029068Y010335
X012068Y006585
X025318Y010585
X022818Y006585
X004568Y012085
X022068Y023585
X021568Y017585
X023318Y010585
X014818Y016085
X018568Y016835
X022068Y014585
X008068Y009335
X018568Y015835
X006818Y009335
X004568Y016585
X025318Y014585
X011318Y015835
X021068Y023585
X022068Y010585
X027068Y010335
X011318Y016835
T104
X021584Y019085
X022568Y019085
X021084Y022085
X022068Y022085
X013068Y016819
X013068Y015835
T105
X024068Y025085
X024068Y027085
X024068Y028085
X024068Y026085
T106
X017568Y005835
X013068Y022085
X019440Y002835
X019068Y029085
X017568Y002835
X013068Y025085
X010568Y025085
X004568Y020085
X019068Y019085
X004568Y028085
X014202Y002835
X010568Y019085
X013068Y027085
X010568Y026085
X010068Y002835
X004568Y022085
X010568Y027085
X020818Y002835
X004568Y030085
X010568Y020085
X010568Y030085
X010568Y023085
X028568Y004585
X010568Y024085
X013068Y030085
X004568Y024085
X019068Y020085
X019068Y023085
X012824Y002835
X028568Y007585
X026568Y007585
X013068Y023085
X004568Y023085
X019068Y026085
X013068Y028085
X013068Y026085
X019068Y021085
X019068Y025085
X004568Y019085
X018568Y005835
X013068Y019085
X019068Y028085
X004568Y021085
X016568Y005835
X010568Y028085
X019068Y024085
X013068Y029085
X004568Y025085
X016190Y002835
X028568Y008585
X024068Y002835
X022690Y002835
X013068Y021085
X019068Y030085
X010568Y022085
X019068Y022085
X013068Y024085
X026568Y008585
X026568Y004585
X019068Y027085
X011446Y002835
X004568Y027085
X013068Y020085
X010568Y029085
X004568Y026085
X010568Y021085
X004568Y029085
T107
X016568Y015335
X016568Y017335
X016567Y016333
T108
X008818Y017335
X006818Y017335
X007818Y015335
T00
M30
